<svg xmlns="http://www.w3.org/2000/svg" viewBox="0 0 32 32" id="RobotAlgorithm"><path d="M28.5 22c0-1.2076416-.8600464-2.2172241-2-2.4494629v-1.5505371c0-.2763672-.2236328-.5-.5-.5h-9.5v-.5c0-.2763672-.2236328-.5-.5-.5s-.5.2236328-.5.5v.5H6c-.2763672 0-.5.2236328-.5.5v1.5505371c-1.1397095.2322998-2 1.2418213-2 2.4494629s.8602905 2.2171631 2 2.4494629v1.0505371h-1.5c-.2763672 0-.5.2236328-.5.5v4c0 .2763672.2236328.5.5.5h4c.2763672 0 .5-.2236328.5-.5v-1.5h5v1.5c0 .2763672.2236328.5.5.5h4c.2763672 0 .5-.2236328.5-.5v-1.5h5v1.5c0 .2763672.2236328.5.5.5h4c.2763672 0 .5-.2236328.5-.5v-4c0-.2763672-.2236328-.5-.5-.5h-1.5v-1.0505371c1.1399536-.2322388 2-1.2418213 2-2.4494629zm-1 0c0 .8271484-.6728516 1.5-1.5 1.5s-1.5-.6728516-1.5-1.5.6728516-1.5 1.5-1.5 1.5.6728516 1.5 1.5zm-23 0c0-.8271484.6728516-1.5 1.5-1.5s1.5.6728516 1.5 1.5-.6728516 1.5-1.5 1.5-1.5-.6728516-1.5-1.5zm3 7.5h-3v-3h3v3zm1-2v-1.5c0-.2763672-.2236328-.5-.5-.5h-1.5v-1.0505371c1.1397095-.2322998 2-1.2418213 2-2.4494629s-.8602905-2.2171631-2-2.4494629v-1.0505371h9v1.0505371c-1.1397095.2322998-2 1.2418213-2 2.4494629s.8602905 2.2171631 2 2.4494629v1.0505371h-1.5c-.2763672 0-.5.2236328-.5.5v1.5h-5zm7.5-4c-.8271484 0-1.5-.6728516-1.5-1.5s.6728516-1.5 1.5-1.5 1.5.6728516 1.5 1.5-.6728516 1.5-1.5 1.5zm1.5 6h-3v-3h3v3zm10 0h-3v-3h3v3zm-3.5-4c-.2763672 0-.5.2236328-.5.5v1.5h-5v-1.5c0-.2763672-.2236328-.5-.5-.5h-1.5v-1.0505371c1.1399536-.2322388 2-1.2418213 2-2.4494629s-.8600464-2.2172241-2-2.4494629v-1.0505371h9v1.0505371c-1.1399536.2322388-2 1.2418213-2 2.4494629s.8600464 2.2172241 2 2.4494629v1.0505371h-1.5zM17 10.5h-2c-.2763672 0-.5.2236328-.5.5s.2236328.5.5.5h2c.2763672 0 .5-.2236328.5-.5s-.2236328-.5-.5-.5zM13 9.5c.2763672 0 .5-.2236328.5-.5 0-.2753906.2241211-.5.5-.5s.5.2246094.5.5c0 .2763672.2236328.5.5.5s.5-.2236328.5-.5c0-.8271484-.6728516-1.5-1.5-1.5s-1.5.6728516-1.5 1.5c0 .2763672.2236328.5.5.5zM17 9.5c.2763672 0 .5-.2236328.5-.5 0-.2753906.2246094-.5.5-.5s.5.2246094.5.5c0 .2763672.2236328.5.5.5s.5-.2236328.5-.5c0-.8271484-.6728516-1.5-1.5-1.5s-1.5.6728516-1.5 1.5c0 .2763672.2236328.5.5.5z" fill="#d8a353" class="color000000 svgShape"></path><path d="m9,4.5c-.2763672,0-.5.2236328-.5.5v4c0,1.2070312.8603516,2.2177734,2,2.4501953v.5498047c0,.8271484.6728516,1.5,1.5,1.5h.5v1.5c0,.2763672.2236328.5.5.5h1c.2763672,0,.5-.2236328.5-.5s-.2236328-.5-.5-.5h-.5v-1h5v1h-.5c-.2763672,0-.5.2236328-.5.5s.2236328.5.5.5h1c.2763672,0,.5-.2236328.5-.5v-1.5h.5c.8271484,0,1.5-.6728516,1.5-1.5v-.5498047c1.1396484-.2324219,2-1.2431641,2-2.4501953v-4c0-.2763672-.2236328-.5-.5-.5s-.5.2236328-.5.5v2.0124512c-.3121338-.236145-.6774292-.4012451-1.0789185-.4699097-.1947632-.6026001-.7544556-1.0425415-1.4210815-1.0425415h-3.5v-1.0921021c.5807495-.2070923,1-.756897,1-1.4078979,0-.8271484-.6728516-1.5-1.5-1.5s-1.5.6728516-1.5,1.5c0,.651001.4192505,1.2008057,1,1.4078979v1.0921021h-3.5c-.666626,0-1.2263184.4399414-1.4210815,1.0425415-.4014893.0687256-.7667847.2338867-1.0789185.4700928v-2.0126343c0-.2763672-.2236328-.5-.5-.5Zm7-2c.2758789,0,.5.2246094.5.5s-.2241211.5-.5.5-.5-.2246094-.5-.5.2241211-.5.5-.5Zm6.5,6.5c0,.6523438-.4179688,1.2080078-1,1.4140625v-2.828125c.5820312.2060547,1,.7617188,1,1.4140625Zm-10.5-2.5h8c.2753906,0,.5.2246094.5.5v5c0,.2753906-.2246094.5-.5.5h-8c-.2758789,0-.5-.2246094-.5-.5v-5c0-.2753906.2241211-.5.5-.5Zm-1.5,1.0859375v2.828125c-.5820312-.2060547-1-.7617188-1-1.4140625s.4179688-1.2080078,1-1.4140625Z" fill="#d8a353" class="color000000 svgShape"></path><circle cx="16" cy="15" r=".5" fill="#d8a353" class="color000000 svgShape"></circle></svg>